<svg xmlns="http://www.w3.org/2000/svg" width="59" height="55" viewBox="0 0 59 55"><g><g><path fill="#f26522" d="M3.248 28.061L29.5 4.551l26.254 23.51c.347.31.772.462 1.201.462.512 0 1.019-.222 1.38-.65.665-.79.58-1.982-.179-2.67L30.701.617a1.785 1.785 0 0 0-2.398 0l-9.784 8.76V5.828c0-2.088-1.641-3.783-3.66-3.783-2.02 0-3.661 1.695-3.661 3.783V15.93L.845 25.203a1.94 1.94 0 0 0-.182 2.67c.667.787 1.82.872 2.584.188zm18.931 8.027h14.644V55h10.981c2.016 0 3.66-1.695 3.66-3.782V32.682c0-1.138-.493-2.209-1.344-2.925L31.818 14.252a3.57 3.57 0 0 0-2.318-.859c-.824 0-1.648.289-2.32.86L8.878 29.756a3.814 3.814 0 0 0-1.34 2.925v18.536c0 2.087 1.64 3.782 3.66 3.782h10.981z"/></g></g></svg>